PathFileType	4	(X/Y/Z)	D:\TRACE\v60_Jaco2_6-2-23\JustBodyDRS_Motion1_8-platform.trc
DataRate	CameraRate	NumFrames	NumMarkers	Units	OrigDataRate	OrigDataStartFrame	OrigNumFrames
100.00	100.00	      69	5	mm	100.00	1	      6712
Frame#	Time	Left_Front			Right_Front			Left_Aft			Right_Aft			Post			
		X1	Y1	Z1	X2	Y2	Z2	X3	Y3	Z3	X4	Y4	Z4	X5	Y5	Z5	

1	0.000	-800.65179	8.72486	-638.95685	769.27905	10.10655	-644.32202	-708.74792	7.78378	496.17422	732.91577	6.96441	505.68179	-14.25837	1307.91638	-962.00702	
2	0.010	-800.62988	8.80390	-638.93292	769.30066	10.08713	-644.33948	-708.74347	7.78996	496.16272	732.91577	6.94525	505.67130	-14.31352	1307.94568	-961.99371	
3	0.020	-800.61761	8.74865	-639.01782	769.37433	10.05626	-644.35901	-708.74908	7.74824	496.15088	732.99542	6.99137	505.65634	-14.27233	1307.93506	-962.01367	
4	0.030	-800.65802	8.79211	-638.96234	769.29437	10.07561	-644.39148	-708.73608	7.76493	496.15973	732.98834	7.02443	505.70145	-14.20603	1307.91980	-961.98291	
5	0.040	-800.66144	8.74548	-638.91486	769.25079	10.06205	-644.35352	-708.76538	7.76884	496.17557	732.97449	7.00276	505.67767	-14.32756	1307.96387	-961.98645	
6	0.050	-800.64154	8.80416	-638.90729	769.30908	10.06351	-644.38654	-708.77087	7.75199	496.14667	733.03827	7.03389	505.65683	-14.32248	1307.93823	-962.01300	
7	0.060	-800.62067	8.79429	-638.93274	769.28857	10.08142	-644.35602	-708.77234	7.80657	496.13443	733.00311	7.02602	505.65067	-14.32010	1307.94568	-962.00464	
8	0.070	-800.63165	8.74215	-638.93030	769.31317	10.10515	-644.30615	-708.78625	7.79877	496.14780	732.98120	7.02055	505.63870	-14.35478	1307.97070	-961.96997	
9	0.080	-800.60699	8.78227	-638.94043	769.29980	10.07445	-644.34839	-708.75134	7.76767	496.14542	732.95734	7.01558	505.68689	-14.33180	1307.95520	-961.99951	
10	0.090	-800.63428	8.68233	-638.95093	769.29041	10.08906	-644.35089	-708.75745	7.77333	496.15723	732.88184	6.99195	505.63867	-14.30431	1307.97327	-962.02771	
11	0.100	-800.61157	8.75852	-638.98206	769.27686	10.07370	-644.33801	-708.75366	7.76907	496.15411	732.96680	6.99533	505.67078	-14.32433	1307.93909	-961.98743	
12	0.110	-800.64758	8.76840	-638.91760	769.29639	10.09662	-644.37079	-708.73657	7.77143	496.16638	732.96582	7.01308	505.65311	-14.29550	1307.93921	-962.02679	
13	0.120	-800.61804	8.69978	-638.92566	769.22571	10.10263	-644.38409	-708.77509	7.77811	496.13867	732.97424	7.02551	505.66345	-14.38508	1307.96960	-962.05194	
14	0.130	-800.61469	8.74522	-638.97266	769.30652	10.07538	-644.33655	-708.75165	7.78278	496.13446	732.99188	7.04461	505.64789	-14.24688	1307.91296	-961.98077	
15	0.140	-800.62457	8.79021	-638.94800	769.23907	10.08223	-644.38287	-708.73108	7.76327	496.16968	732.94586	7.01563	505.65948	-14.30328	1307.92737	-961.99121	
16	0.150	-800.63922	8.74519	-638.90234	769.29651	10.08374	-644.35834	-708.72705	7.73652	496.12662	732.92084	6.97696	505.63477	-14.27404	1307.91907	-961.98444	
17	0.160	-800.65820	8.79373	-638.93982	769.35583	10.05951	-644.34705	-708.73407	7.73962	496.13129	732.92188	7.00312	505.68622	-14.30751	1307.94177	-962.03278	
18	0.170	-800.65521	8.75487	-638.88965	769.28735	10.08434	-644.35168	-708.72125	7.77848	496.14435	732.99554	7.04163	505.66721	-14.32456	1307.93274	-962.02930	
19	0.180	-800.65326	8.76682	-638.94177	769.22876	10.08432	-644.39630	-708.72095	7.72079	496.13922	732.94238	7.01295	505.66483	-14.35064	1307.93347	-962.02252	
20	0.190	-800.64551	8.74316	-638.90546	769.27789	10.05100	-644.37054	-708.75293	7.77482	496.17303	732.95435	7.00036	505.64423	-14.30163	1307.92126	-962.02588	
21	0.200	-800.68231	8.73162	-638.92572	769.26575	10.05800	-644.35748	-708.76794	7.74543	496.15549	732.99884	7.03608	505.66525	-14.32472	1307.94250	-962.03839	
22	0.210	-800.68750	8.77869	-638.88696	769.23242	10.05636	-644.36475	-708.75464	7.78455	496.15732	732.93854	6.94547	505.64389	-14.33653	1307.94055	-961.99933	
23	0.220	-800.63989	8.73622	-638.97223	769.25842	10.04597	-644.37054	-708.74323	7.76221	496.14948	732.93713	6.99080	505.63947	-14.30497	1307.92834	-962.00189	
24	0.230	-800.64514	8.81658	-638.91370	769.26978	10.09684	-644.37567	-708.74359	7.76189	496.15369	732.96613	6.98882	505.64401	-14.29169	1307.92639	-962.00079	
25	0.240	-800.66479	8.84555	-638.98828	769.33203	10.04404	-644.34589	-708.73657	7.76305	496.13351	733.02057	7.05793	505.65515	-14.33358	1307.95630	-961.99481	
26	0.250	-800.62671	8.79303	-638.93549	769.32281	10.07246	-644.35736	-708.73914	7.76808	496.15289	733.08307	7.07031	505.64114	-14.34407	1307.94922	-962.02551	
27	0.260	-800.61475	8.74827	-638.98901	769.23962	10.08981	-644.36652	-708.76233	7.74617	496.12244	732.93988	6.98905	505.65668	-14.38847	1307.98218	-961.99280	
28	0.270	-800.62964	8.77363	-638.92163	769.30719	10.04414	-644.37598	-708.74866	7.76202	496.12827	733.07397	7.04580	505.64938	-14.25295	1307.94666	-961.98364	
29	0.280	-800.63129	8.76230	-638.92670	769.27771	10.09047	-644.35040	-708.74084	7.75895	496.13583	732.97656	7.01030	505.67227	-14.34429	1307.95081	-962.01056	
30	0.290	-800.64258	8.79582	-638.91046	769.25543	10.04556	-644.35974	-708.77179	7.77161	496.12320	732.96252	7.00269	505.64682	-14.34067	1307.92432	-961.98199	
31	0.300	-800.66504	8.79603	-638.86218	769.35809	10.02121	-644.34387	-708.73303	7.72860	496.15454	732.96149	6.98759	505.63287	-14.30588	1307.94299	-961.96838	
32	0.310	-800.63538	8.78592	-638.95453	769.31006	10.07924	-644.34412	-708.75092	7.75917	496.17804	732.94116	6.97839	505.64786	-14.28026	1307.92505	-961.98413	
33	0.320	-800.62549	8.78286	-638.96460	769.39258	10.04853	-644.33209	-708.69269	7.73837	496.18155	732.99219	7.00943	505.66037	-14.31576	1307.93372	-961.99463	
34	0.330	-800.60419	8.74760	-638.97394	769.26221	10.10038	-644.34296	-708.75085	7.73722	496.14767	733.00659	7.04603	505.64459	-14.26459	1307.92993	-961.98969	
35	0.340	-800.61530	8.74675	-638.93896	769.38824	10.03891	-644.33942	-708.71503	7.74867	496.16422	733.04645	7.05340	505.68384	-14.34573	1307.92175	-962.01202	
36	0.350	-800.64270	8.75634	-638.93842	769.35229	10.02676	-644.31830	-708.71240	7.71761	496.19595	732.92230	6.99226	505.66998	-14.36086	1307.92078	-961.98657	
37	0.360	-800.66809	8.72553	-638.92981	769.30164	10.05397	-644.34619	-708.72766	7.74014	496.17398	732.92377	6.99930	505.65744	-14.32528	1307.89575	-961.99969	
38	0.370	-800.66760	8.77853	-638.92743	769.27533	10.09453	-644.35669	-708.71289	7.76918	496.18710	732.97046	7.00009	505.64960	-14.27097	1307.92896	-962.01123	
39	0.380	-800.65125	8.77463	-638.90582	769.26538	10.05429	-644.38483	-708.74512	7.77265	496.15137	732.97919	7.02076	505.67300	-14.37439	1307.97522	-961.98523	
40	0.390	-800.64038	8.73927	-638.93982	769.26514	10.10004	-644.36865	-708.74951	7.73646	496.15256	732.95447	7.01890	505.66968	-14.32885	1307.94836	-961.98071	
41	0.400	-800.62323	8.73713	-638.92694	769.38934	10.02921	-644.32611	-708.72742	7.75255	496.14838	732.98669	7.00725	505.65594	-14.30249	1307.94678	-961.98669	
42	0.410	-800.61511	8.77342	-638.99579	769.22211	10.11457	-644.39746	-708.75903	7.78439	496.15771	732.93457	6.96793	505.67676	-14.33177	1307.96631	-962.02069	
43	0.420	-800.60620	8.77077	-638.96936	769.26849	10.06019	-644.35248	-708.73999	7.74720	496.14365	732.97339	7.03490	505.69446	-14.27976	1307.96350	-962.01050	
44	0.430	-800.64508	8.77291	-638.97046	769.26233	10.09147	-644.35406	-708.75464	7.79146	496.15479	732.94598	6.98694	505.67368	-14.32346	1307.94324	-962.01300	
45	0.440	-800.60559	8.78017	-639.00549	769.39038	10.03922	-644.31226	-708.73425	7.78405	496.13593	733.03375	7.02150	505.66824	-14.26550	1307.96191	-962.00739	
46	0.450	-800.66309	8.77986	-638.89783	769.28638	10.07928	-644.33905	-708.77075	7.78555	496.15640	732.91089	6.96913	505.68628	-14.33912	1307.94495	-962.01514	
47	0.460	-800.60614	8.73462	-638.94611	769.23822	10.06684	-644.38647	-708.73206	7.76303	496.19211	732.91370	6.97999	505.70645	-14.27491	1307.89636	-962.00018	
48	0.470	-800.65167	8.76371	-638.85962	769.34381	10.04069	-644.34650	-708.76422	7.74243	496.16904	732.92047	6.96071	505.68771	-14.38968	1307.90466	-961.99725	
49	0.480	-800.70038	8.77654	-638.95844	769.23389	10.08905	-644.38928	-708.72882	7.75759	496.15228	732.89752	6.96400	505.66568	-14.27803	1307.92834	-962.00177	
50	0.490	-800.61560	8.72543	-638.94092	769.29053	10.09295	-644.39642	-708.74689	7.76030	496.16138	732.95032	6.98870	505.66275	-14.33125	1307.91663	-962.00696	
51	0.500	-800.65588	8.75911	-638.92676	769.26141	10.07269	-644.38806	-708.71838	7.73787	496.17535	732.97064	7.00816	505.66290	-14.27959	1307.90686	-961.97406	
52	0.510	-800.66870	8.78013	-639.01672	769.26697	10.07281	-644.33838	-708.74707	7.70775	496.18823	733.02240	7.03685	505.65689	-14.31816	1307.93823	-962.02966	
53	0.520	-800.64124	8.71749	-638.92999	769.29089	10.09147	-644.37848	-708.72699	7.73253	496.17831	732.92639	6.98332	505.65796	-14.26064	1307.92944	-962.00403	
54	0.530	-800.65155	8.73649	-638.90015	769.33893	10.05844	-644.38251	-708.75989	7.74551	496.13153	732.90521	6.95656	505.68103	-14.31707	1307.93457	-961.97461	
55	0.540	-800.66498	8.73008	-638.95148	769.28015	10.08702	-644.39801	-708.76239	7.78193	496.15628	733.01398	7.01707	505.66522	-14.38135	1307.96875	-962.00177	
56	0.550	-800.62701	8.75905	-638.97009	769.24622	10.07710	-644.43585	-708.74170	7.77013	496.14847	733.04193	6.99956	505.66278	-14.27327	1307.95068	-961.99237	
57	0.560	-800.64099	8.75331	-638.91510	769.31219	10.11743	-644.32410	-708.77698	7.77036	496.14868	733.00385	7.02590	505.64722	-14.38502	1307.97107	-962.01379	
58	0.570	-800.65582	8.76332	-638.96069	769.29266	10.10340	-644.35071	-708.76080	7.76647	496.16025	733.00385	7.03221	505.65778	-14.25208	1307.91687	-962.02240	
59	0.580	-800.60706	8.70607	-638.95770	769.28412	10.07060	-644.38361	-708.75891	7.77177	496.12344	732.96954	6.98940	505.66171	-14.30790	1307.93408	-961.96234	
60	0.590	-800.65125	8.73070	-638.92102	769.22815	10.06334	-644.37640	-708.77094	7.73281	496.14297	732.95856	6.99217	505.64597	-14.34329	1307.93970	-962.02264	
61	0.600	-800.62964	8.70544	-638.92426	769.32385	10.10092	-644.30872	-708.76978	7.79977	496.14032	732.95093	7.01089	505.67426	-14.28434	1307.95142	-962.02594	
62	0.610	-800.64136	8.72805	-638.93420	769.33429	10.07061	-644.34143	-708.75507	7.76701	496.10413	732.96564	6.99743	505.66068	-14.33271	1307.95581	-962.01917	
63	0.620	-800.61432	8.75626	-638.90833	769.24878	10.06956	-644.38800	-708.75250	7.81838	496.19882	732.99719	7.03600	505.64786	-14.29804	1307.94067	-962.00031	
64	0.630	-800.62744	8.78367	-638.93982	769.25360	10.07107	-644.36072	-708.76935	7.78383	496.15430	733.00574	7.02705	505.63211	-14.32168	1307.94397	-962.04028	
65	0.640	-800.63696	8.72227	-638.94000	769.25494	10.08314	-644.35773	-708.73962	7.76337	496.15421	732.96625	6.96248	505.66098	-14.34098	1307.93359	-962.03467	
66	0.650	-800.63275	8.72083	-638.92004	769.29321	10.07269	-644.34198	-708.75769	7.79253	496.13751	732.98309	7.00316	505.65527	-14.31850	1307.94739	-962.02936	
67	0.660	-800.59546	8.75690	-638.97369	769.29803	10.10310	-644.32275	-708.77307	7.79515	496.14355	733.02100	7.04496	505.66422	-14.33224	1307.95044	-961.99811	
68	0.670	-800.63440	8.74682	-638.92944	769.36530	10.04542	-644.33850	-708.75769	7.78483	496.12439	732.97601	6.98058	505.66116	-14.30749	1307.94397	-962.00336	
69	0.680	-800.61438	8.75368	-638.97516	769.25214	10.06454	-644.38611	-708.74084	7.76407	496.14145	732.95557	6.99803	505.65909	-14.30146	1307.94287	-961.96466	
